<svg width="24" height="24" viewBox="0 0 24 24" fill="none" xmlns="http://www.w3.org/2000/svg">
<path d="M18 3C18.5304 3 19.0391 3.21071 19.4142 3.58579C19.7893 3.96086 20 4.46957 20 5V7H20.191C20.4466 7.00001 20.6979 7.06533 20.9212 7.18977C21.1445 7.31422 21.3322 7.49364 21.4667 7.71103C21.6011 7.92842 21.6778 8.17656 21.6894 8.4319C21.701 8.68724 21.6472 8.94131 21.533 9.17L20 12.237V19C20 19.5304 19.7893 20.0391 19.4142 20.4142C19.0391 20.7893 18.5304 21 18 21H5.99998C5.46955 21 4.96084 20.7893 4.58577 20.4142C4.2107 20.0391 3.99998 19.5304 3.99998 19V12.236L2.46698 9.171C2.35254 8.9422 2.29852 8.68793 2.31006 8.43237C2.32159 8.1768 2.3983 7.92843 2.53288 7.71087C2.66747 7.49331 2.85546 7.31379 3.07899 7.18936C3.30252 7.06494 3.55416 6.99975 3.80998 7H3.99998V5C3.99998 4.46957 4.2107 3.96086 4.58577 3.58579C4.96084 3.21071 5.46955 3 5.99998 3H18ZM19.382 9H4.61798L5.89398 11.553C5.96998 11.703 6.00398 11.863 5.99998 12.02V19H18V12.02C17.997 11.858 18.0333 11.6978 18.106 11.553L19.382 9ZM14.5 11C15.0046 10.9998 15.4905 11.1904 15.8605 11.5335C16.2305 11.8766 16.4571 12.3468 16.495 12.85L16.5 13V15C16.5001 15.5046 16.3096 15.9906 15.9665 16.3605C15.6234 16.7305 15.1531 16.9572 14.65 16.995L14.5 17H13.5C12.9954 17.0002 12.5094 16.8096 12.1394 16.4665C11.7695 16.1234 11.5428 15.6532 11.505 15.15L11.5 15V13C11.4998 12.4954 11.6904 12.0094 12.0335 11.6395C12.3766 11.2695 12.8468 11.0428 13.35 11.005L13.5 11H14.5ZM10.494 11.9L10.5 12.016V16C10.4997 16.2549 10.4021 16.5 10.2271 16.6854C10.0522 16.8707 9.81303 16.9822 9.55859 16.9972C9.30415 17.0121 9.0536 16.9293 8.85815 16.7657C8.6627 16.6021 8.53709 16.3701 8.50698 16.117L8.49998 16V13.5C8.28481 13.4998 8.07542 13.4303 7.90293 13.3017C7.73043 13.173 7.60403 12.9922 7.54248 12.786C7.48094 12.5798 7.48755 12.3593 7.56132 12.1572C7.63509 11.955 7.7721 11.7821 7.95198 11.664L8.05198 11.606L9.03798 11.113C9.63898 10.813 10.335 11.172 10.475 11.788L10.494 11.9ZM14.5 13H13.5V15H14.5V13ZM18 5H5.99998V7H18V5Z" fill="#663F30"/>
</svg>
