<svg width="24" height="24" viewBox="0 0 24 24" fill="none" xmlns="http://www.w3.org/2000/svg">
<path fill-rule="evenodd" clip-rule="evenodd" d="M15.586 2.75702C15.9611 2.38208 16.4697 2.17145 17 2.17145C17.5303 2.17145 18.0389 2.38208 18.414 2.75702L21.243 5.58602C21.6179 5.96108 21.8286 6.46969 21.8286 7.00002C21.8286 7.53035 21.6179 8.03897 21.243 8.41402L18.414 11.243C18.0389 11.618 17.5303 11.8286 17 11.8286C16.4697 11.8286 15.9611 11.618 15.586 11.243L12.757 8.41402C12.3821 8.03897 12.1714 7.53035 12.1714 7.00002C12.1714 6.46969 12.3821 5.96108 12.757 5.58602L15.586 2.75702ZM9 3.00002C9.53043 3.00002 10.0391 3.21073 10.4142 3.58581C10.7893 3.96088 11 4.46959 11 5.00002V9.00002C11 9.53045 10.7893 10.0392 10.4142 10.4142C10.0391 10.7893 9.53043 11 9 11H5C4.46957 11 3.96086 10.7893 3.58579 10.4142C3.21071 10.0392 3 9.53045 3 9.00002V5.00002C3 4.46959 3.21071 3.96088 3.58579 3.58581C3.96086 3.21073 4.46957 3.00002 5 3.00002H9ZM21 15C21 14.4696 20.7893 13.9609 20.4142 13.5858C20.0391 13.2107 19.5304 13 19 13H15C14.4696 13 13.9609 13.2107 13.5858 13.5858C13.2107 13.9609 13 14.4696 13 15V19C13 19.5305 13.2107 20.0392 13.5858 20.4142C13.9609 20.7893 14.4696 21 15 21H19C19.5304 21 20.0391 20.7893 20.4142 20.4142C20.7893 20.0392 21 19.5305 21 19V15ZM9 13C9.53043 13 10.0391 13.2107 10.4142 13.5858C10.7893 13.9609 11 14.4696 11 15V19C11 19.5305 10.7893 20.0392 10.4142 20.4142C10.0391 20.7893 9.53043 21 9 21H5C4.46957 21 3.96086 20.7893 3.58579 20.4142C3.21071 20.0392 3 19.5305 3 19V15C3 14.4696 3.21071 13.9609 3.58579 13.5858C3.96086 13.2107 4.46957 13 5 13H9Z" fill="#F6F0ED"/>
</svg>
