<svg width="14" height="15" viewBox="0 0 14 15" fill="none" xmlns="http://www.w3.org/2000/svg">
<g id="Frame">
<g id="Group">
<path id="Vector" d="M7 3.4165C9.14609 3.4165 11.7612 4.82642 12.6758 6.85875C12.761 7.05009 12.8333 7.27292 12.8333 7.49984C12.8333 7.72617 12.7616 7.94959 12.6758 8.14092C11.7606 10.1733 9.1455 11.5832 7 11.5832C4.85451 11.5832 2.23884 10.1733 1.32417 8.14092C1.23901 7.949 1.16667 7.72675 1.16667 7.49984C1.16667 7.2735 1.23842 7.05009 1.32417 6.85875C2.23942 4.82642 4.85451 3.4165 7 3.4165ZM7 5.1665C6.38117 5.1665 5.78767 5.41234 5.35009 5.84992C4.9125 6.28751 4.66667 6.881 4.66667 7.49984C4.66667 8.11868 4.9125 8.71217 5.35009 9.14975C5.78767 9.58734 6.38117 9.83317 7 9.83317C7.61884 9.83317 8.21234 9.58734 8.64992 9.14975C9.08751 8.71217 9.33334 8.11868 9.33334 7.49984C9.33334 6.881 9.08751 6.28751 8.64992 5.84992C8.21234 5.41234 7.61884 5.1665 7 5.1665ZM7 6.33317C7.30942 6.33317 7.60617 6.45609 7.82496 6.67488C8.04376 6.89367 8.16667 7.19042 8.16667 7.49984C8.16667 7.80926 8.04376 8.106 7.82496 8.32479C7.60617 8.54359 7.30942 8.6665 7 8.6665C6.69059 8.6665 6.39384 8.54359 6.17505 8.32479C5.95625 8.106 5.83334 7.80926 5.83334 7.49984C5.83334 7.19042 5.95625 6.89367 6.17505 6.67488C6.39384 6.45609 6.69059 6.33317 7 6.33317Z" fill="#663F30"/>
</g>
</g>
</svg>
