<svg width="13" height="13" viewBox="0 0 13 13" fill="none" xmlns="http://www.w3.org/2000/svg">
<rect width="13" height="13" fill="#1E1E1E"/>
<g id="Schedule">
<g clip-path="url(#clip0_96_58)">
<rect x="-635" y="-275" width="1440" height="850" rx="10" fill="white"/>
<rect id="Rectangle 9" x="-635" y="-196" width="1440" height="771" fill="#F7F0ED"/>
<rect id="Rectangle 8" x="-337" y="-178" width="1118" height="723" rx="20" fill="white"/>
<g id="Frame 68">
<g clip-path="url(#clip1_96_58)">
<mask id="path-5-inside-1_96_58" fill="white">
<path d="M-251 -56C-251 -64.2843 -244.284 -71 -236 -71H336C344.284 -71 351 -64.2843 351 -56V498C351 506.284 344.284 513 336 513H-236C-244.284 513 -251 506.284 -251 498V-56Z"/>
</mask>
<path d="M-251 -56C-251 -64.2843 -244.284 -71 -236 -71H336C344.284 -71 351 -64.2843 351 -56V498C351 506.284 344.284 513 336 513H-236C-244.284 513 -251 506.284 -251 498V-56Z" fill="#F6F0ED"/>
<g id="Group 13">
<g id="Group 12">
<rect id="Rectangle 12" x="-214.5" y="-46.5" width="529" height="356" rx="9.5" fill="white" stroke="#E8DAD3"/>
<g id="Frame">
<g id="Group">
<path id="Vector" d="M6.5 1.0835C9.49163 1.0835 11.9167 3.50854 11.9167 6.50016C11.9167 9.49179 9.49163 11.9168 6.5 11.9168C3.50838 11.9168 1.08334 9.49179 1.08334 6.50016C1.08334 3.50854 3.50838 1.0835 6.5 1.0835ZM7.58334 7.2585L6.73617 7.93612C6.70643 7.95992 6.68205 7.98973 6.66462 8.0236C6.64718 8.05746 6.63709 8.09462 6.63499 8.13266C6.6329 8.17069 6.63885 8.20874 6.65245 8.24431C6.66606 8.27989 6.68702 8.31219 6.71396 8.33912L7.38509 9.01025C7.51504 9.14036 7.60974 9.30142 7.66025 9.47824L7.75504 9.81029C7.79435 9.9496 7.86417 10.0784 7.95946 10.1874C8.05474 10.2963 8.17309 10.3827 8.30592 10.4402C8.82421 10.2024 9.29047 9.86466 9.67796 9.44629L9.55121 8.42958C9.52903 8.25269 9.46354 8.08401 9.36055 7.9385C9.25756 7.79299 9.12024 7.67514 8.96079 7.59541L8.16454 7.19675C8.0719 7.15038 7.96791 7.13156 7.8649 7.1425C7.76188 7.15345 7.66417 7.1937 7.58334 7.2585ZM6.5 2.16683C5.83705 2.16639 5.18286 2.31825 4.5879 2.61071C3.99294 2.90316 3.47312 3.32839 3.06854 3.85358L2.97917 3.97329V4.886C2.9791 5.21668 3.07992 5.53952 3.26818 5.8114C3.45643 6.08327 3.72314 6.29125 4.03271 6.40754L4.12913 6.44004L4.82788 6.654C5.57159 6.8815 6.29579 6.27645 6.22375 5.51866L6.21346 5.44012L6.11867 4.87191C6.09772 4.74605 6.12188 4.61683 6.18689 4.50703C6.25189 4.39723 6.35357 4.31391 6.474 4.27175L6.5325 4.2555L6.864 4.17966C7.05209 4.13667 7.22966 4.05644 7.38623 3.9437C7.54281 3.83097 7.67521 3.68801 7.77563 3.52326C7.87605 3.35852 7.94246 3.17533 7.97092 2.9845C7.99939 2.79368 7.98934 2.59908 7.94138 2.4122C7.47829 2.24936 6.99089 2.16639 6.5 2.16683Z" fill="#663F30" fill-opacity="0.8"/>
</g>
</g>
</g>
</g>
</g>
<path d="M-236 -70H336V-72H-236V-70ZM350 -56V498H352V-56H350ZM336 512H-236V514H336V512ZM-250 498V-56H-252V498H-250ZM-236 512C-243.732 512 -250 505.732 -250 498H-252C-252 506.837 -244.837 514 -236 514V512ZM350 498C350 505.732 343.732 512 336 512V514C344.837 514 352 506.837 352 498H350ZM336 -70C343.732 -70 350 -63.732 350 -56H352C352 -64.8366 344.837 -72 336 -72V-70ZM-236 -72C-244.837 -72 -252 -64.8365 -252 -56H-250C-250 -63.732 -243.732 -70 -236 -70V-72Z" fill="#E8DAD3" mask="url(#path-5-inside-1_96_58)"/>
</g>
</g>
<rect x="-634.5" y="-274.5" width="1439" height="849" rx="9.5" stroke="#3C3C3C"/>
</g>
<defs>
<clipPath id="clip0_96_58">
<rect x="-635" y="-275" width="1440" height="850" rx="10" fill="white"/>
</clipPath>
<clipPath id="clip1_96_58">
<path d="M-251 -56C-251 -64.2843 -244.284 -71 -236 -71H336C344.284 -71 351 -64.2843 351 -56V498C351 506.284 344.284 513 336 513H-236C-244.284 513 -251 506.284 -251 498V-56Z" fill="white"/>
</clipPath>
</defs>
</svg>
