<svg width="26" height="26" viewBox="0 0 26 26" fill="none" xmlns="http://www.w3.org/2000/svg">
<rect width="26" height="26" fill="#1E1E1E"/>
<g id="Schedule">
<g clip-path="url(#clip0_96_58)">
<rect x="-892" y="-247" width="1440" height="850" rx="10" fill="white"/>
<rect id="Rectangle 9" x="-892" y="-168" width="1440" height="771" fill="#F7F0ED"/>
<rect id="Rectangle 8" x="-594" y="-150" width="1118" height="723" rx="20" fill="white"/>
<g id="Frame 68">
<g clip-path="url(#clip1_96_58)">
<mask id="path-5-inside-1_96_58" fill="white">
<path d="M-508 -28C-508 -36.2843 -501.284 -43 -493 -43H79C87.2842 -43 94 -36.2843 94 -28V526C94 534.284 87.2842 541 79 541H-493C-501.284 541 -508 534.284 -508 526V-28Z"/>
</mask>
<path d="M-508 -28C-508 -36.2843 -501.284 -43 -493 -43H79C87.2842 -43 94 -36.2843 94 -28V526C94 534.284 87.2842 541 79 541H-493C-501.284 541 -508 534.284 -508 526V-28Z" fill="#F6F0ED"/>
<g id="Group 13">
<g id="Group 12">
<rect id="Rectangle 12" x="-471.5" y="-18.5" width="529" height="356" rx="9.5" fill="white" stroke="#E8DAD3"/>
<g id="Frame">
<g id="Group">
<path id="Vector" d="M6.5 11.375C6.93098 11.375 7.3443 11.5462 7.64905 11.851C7.9538 12.1557 8.125 12.569 8.125 13C8.125 13.431 7.9538 13.8443 7.64905 14.149C7.3443 14.4538 6.93098 14.625 6.5 14.625C6.06902 14.625 5.6557 14.4538 5.35095 14.149C5.0462 13.8443 4.875 13.431 4.875 13C4.875 12.569 5.0462 12.1557 5.35095 11.851C5.6557 11.5462 6.06902 11.375 6.5 11.375ZM13 11.375C13.431 11.375 13.8443 11.5462 14.149 11.851C14.4538 12.1557 14.625 12.569 14.625 13C14.625 13.431 14.4538 13.8443 14.149 14.149C13.8443 14.4538 13.431 14.625 13 14.625C12.569 14.625 12.1557 14.4538 11.851 14.149C11.5462 13.8443 11.375 13.431 11.375 13C11.375 12.569 11.5462 12.1557 11.851 11.851C12.1557 11.5462 12.569 11.375 13 11.375ZM19.5 11.375C19.931 11.375 20.3443 11.5462 20.649 11.851C20.9538 12.1557 21.125 12.569 21.125 13C21.125 13.431 20.9538 13.8443 20.649 14.149C20.3443 14.4538 19.931 14.625 19.5 14.625C19.069 14.625 18.6557 14.4538 18.351 14.149C18.0462 13.8443 17.875 13.431 17.875 13C17.875 12.569 18.0462 12.1557 18.351 11.851C18.6557 11.5462 19.069 11.375 19.5 11.375Z" fill="#663F30"/>
</g>
</g>
</g>
</g>
</g>
<path d="M-493 -42H79V-44H-493V-42ZM93 -28V526H95V-28H93ZM79 540H-493V542H79V540ZM-507 526V-28H-509V526H-507ZM-493 540C-500.732 540 -507 533.732 -507 526H-509C-509 534.837 -501.837 542 -493 542V540ZM93 526C93 533.732 86.732 540 79 540V542C87.8365 542 95 534.837 95 526H93ZM79 -42C86.732 -42 93 -35.732 93 -28H95C95 -36.8366 87.8365 -44 79 -44V-42ZM-493 -44C-501.837 -44 -509 -36.8365 -509 -28H-507C-507 -35.732 -500.732 -42 -493 -42V-44Z" fill="#E8DAD3" mask="url(#path-5-inside-1_96_58)"/>
</g>
</g>
<rect x="-891.5" y="-246.5" width="1439" height="849" rx="9.5" stroke="#3C3C3C"/>
</g>
<defs>
<clipPath id="clip0_96_58">
<rect x="-892" y="-247" width="1440" height="850" rx="10" fill="white"/>
</clipPath>
<clipPath id="clip1_96_58">
<path d="M-508 -28C-508 -36.2843 -501.284 -43 -493 -43H79C87.2842 -43 94 -36.2843 94 -28V526C94 534.284 87.2842 541 79 541H-493C-501.284 541 -508 534.284 -508 526V-28Z" fill="white"/>
</clipPath>
</defs>
</svg>
