<svg width="16" height="17" viewBox="0 0 16 17" fill="none" xmlns="http://www.w3.org/2000/svg">
<g id="Frame">
<g id="Group">
<path id="Vector" fill-rule="evenodd" clip-rule="evenodd" d="M6.33333 2.1665C7.23733 2.1665 7.86266 2.7345 8.26333 3.53517C8.61133 4.23184 8.64399 5.0685 8.66133 5.83317H11.884C12.1607 5.83313 12.4344 5.89051 12.6878 6.00169C12.9412 6.11286 13.1688 6.27541 13.3561 6.47906C13.5435 6.6827 13.6866 6.92301 13.7763 7.18478C13.866 7.44655 13.9004 7.72408 13.8773 7.99984L13.6367 10.8872C13.5395 12.0538 13.0074 13.1413 12.146 13.9339C11.2845 14.7266 10.1566 15.1665 8.986 15.1665H7.97799C6.83711 15.1687 5.73539 14.7505 4.88333 13.9918C4.79263 13.9114 4.68535 13.852 4.56911 13.8176C4.45286 13.7833 4.33049 13.7749 4.21066 13.7932C4.03057 13.82 3.84874 13.8334 3.66666 13.8332C2.92799 13.8332 2.31466 13.4198 1.91733 12.7612C1.53066 12.1212 1.33333 11.2378 1.33333 10.1665C1.33333 9.09517 1.53133 8.2125 1.91733 7.5725C2.31466 6.91317 2.92799 6.49984 3.66666 6.49984C3.854 6.49984 4.05266 6.53317 4.25133 6.58917C4.55666 5.78917 4.77399 4.9645 4.67133 4.09917C4.55666 3.13584 5.344 2.1665 6.33333 2.1665Z" fill="white"/>
</g>
</g>
</svg>
