<svg width="10" height="11" viewBox="0 0 10 11" fill="none" xmlns="http://www.w3.org/2000/svg">
<rect width="10" height="11" fill="#1E1E1E"/>
<g id="Schedule">
<g clip-path="url(#clip0_96_58)">
<rect x="-1262" y="-375" width="1440" height="850" rx="10" fill="white"/>
<rect id="Rectangle 9" x="-1262" y="-296" width="1440" height="771" fill="#F7F0ED"/>
<rect id="Rectangle 8" x="-964" y="-278" width="1118" height="723" rx="20" fill="white"/>
<rect id="Rectangle 24" x="-243.5" y="-170.5" width="311" height="583" rx="14.5" fill="#F6F0ED" fill-opacity="0.01" stroke="#E8DAD3"/>
<g id="Group 53">
<g id="Group 12">
<rect id="Rectangle 12" x="-211.5" y="-15.5" width="247" height="78" rx="11.5" fill="white" stroke="#E9E9E9"/>
<g id="Frame 8">
<rect x="-22" y="-4" width="40" height="19" rx="9.5" fill="#F6F0ED"/>
<g id="Frame">
<g id="Group">
<path id="Vector" d="M6.66667 6.3335C7.20353 6.33353 7.71965 6.5408 8.10741 6.9121C8.49516 7.2834 8.72462 7.79006 8.74792 8.32641L8.75 8.41683V8.8335C8.75007 9.04374 8.67066 9.24623 8.52771 9.40039C8.38476 9.55455 8.18881 9.64898 7.97917 9.66475L7.91667 9.66683H2.08333C1.87309 9.6669 1.6706 9.58749 1.51644 9.44454C1.36228 9.30158 1.26785 9.10564 1.25208 8.896L1.25 8.8335V8.41683C1.25003 7.87997 1.45731 7.36385 1.82861 6.97609C2.19991 6.58833 2.70656 6.35888 3.24292 6.33558L3.33333 6.3335H6.66667ZM5 1.3335C5.55253 1.3335 6.08244 1.55299 6.47314 1.94369C6.86384 2.33439 7.08333 2.8643 7.08333 3.41683C7.08333 3.96936 6.86384 4.49927 6.47314 4.88997C6.08244 5.28067 5.55253 5.50016 5 5.50016C4.44747 5.50016 3.91756 5.28067 3.52686 4.88997C3.13616 4.49927 2.91667 3.96936 2.91667 3.41683C2.91667 2.8643 3.13616 2.33439 3.52686 1.94369C3.91756 1.55299 4.44747 1.3335 5 1.3335Z" fill="#663F30"/>
</g>
</g>
</g>
</g>
</g>
</g>
<rect x="-1261.5" y="-374.5" width="1439" height="849" rx="9.5" stroke="#3C3C3C"/>
</g>
<defs>
<clipPath id="clip0_96_58">
<rect x="-1262" y="-375" width="1440" height="850" rx="10" fill="white"/>
</clipPath>
</defs>
</svg>
