<svg width="20" height="20" viewBox="0 0 20 20" fill="none" xmlns="http://www.w3.org/2000/svg">
<g clip-path="url(#clip0_265_670)">
<path fill-rule="evenodd" clip-rule="evenodd" d="M9.41083 6.91098C9.5671 6.75476 9.77903 6.66699 10 6.66699C10.221 6.66699 10.4329 6.75476 10.5892 6.91098L15.3033 11.6251C15.4551 11.7823 15.5391 11.9928 15.5372 12.2113C15.5353 12.4298 15.4477 12.6388 15.2932 12.7933C15.1387 12.9478 14.9297 13.0355 14.7112 13.0374C14.4927 13.0393 14.2822 12.9553 14.125 12.8035L10 8.67848L5.875 12.8035C5.71783 12.9553 5.50733 13.0393 5.28883 13.0374C5.07033 13.0355 4.86132 12.9478 4.70682 12.7933C4.55231 12.6388 4.46467 12.4298 4.46277 12.2113C4.46087 11.9928 4.54487 11.7823 4.69666 11.6251L9.41083 6.91098Z" fill="white"/>
</g>
<defs>
<clipPath id="clip0_265_670">
<rect width="20" height="20" fill="white"/>
</clipPath>
</defs>
</svg>
