<svg width="329" height="310" viewBox="0 0 329 310" fill="none" xmlns="http://www.w3.org/2000/svg">
    <path
        d="M126.405 44.428C143.812 -2.51775 204.743 -14.3796 238.489 22.608C256.245 42.0693 283.773 49.2903 308.796 41.0499C356.352 25.3886 403.616 65.6307 395.738 115.076C391.593 141.092 403.112 167.117 425.155 181.542C467.051 208.959 465.057 271.002 421.487 295.671C398.563 308.651 385.397 333.883 387.863 360.112C392.549 409.96 342.799 447.085 296.347 428.402C271.905 418.572 243.97 424.01 225.001 442.291C188.949 477.036 128.905 461.286 114.549 413.319C106.996 388.081 85.3265 369.631 59.2069 366.199C9.56488 359.675 -15.558 302.911 12.993 261.781C28.0153 240.139 28.9295 211.694 15.3278 189.133C-10.5231 146.254 18.1928 91.2201 68.1512 87.8977C94.4374 86.1495 117.247 69.1289 126.405 44.428Z"
        fill="#A47867" fill-opacity="0.21" />
</svg>
    